<svg width="79" height="17" viewBox="0 0 79 17" fill="none" xmlns="http://www.w3.org/2000/svg">
<path d="M60.3122 14L58.4967 5.85365L56.6811 14H53.4275L50 1H53.46L55.2755 9.67261L57.3194 1H59.6853L61.7292 9.67261L63.5218 1H67L63.5753 13.999L60.3122 14Z" fill="white"/>
<path d="M40.9166 14L39 5.85299L37.0774 14H33.6267L30 1H33.6642L35.5868 9.67331L37.7513 1H40.2538L42.4183 9.67331L44.3176 1H48L44.3743 14H40.9166Z" fill="white"/>
<path d="M68 14V1H79V3.92395H71.2178V5.95154H78.8694V8.87444H71.2178V11.0761H79V14H68Z" fill="white"/>
<path d="M23.5018 0H19.506C15.7888 0 13 2.63841 13 6.40829C13 10.1782 15.7801 12.8116 19.4924 12.8166H23.4999C27.2151 12.8166 30 10.1782 30 6.40829C30 2.63841 27.2189 0 23.5018 0ZM23.5018 9.99293H19.506C17.5027 9.99293 16.1908 8.41389 16.1908 6.40729C16.1908 4.38367 17.5027 2.82566 19.506 2.82365H23.4989C25.5021 2.82365 26.813 4.4027 26.813 6.40929C26.813 8.43291 25.5021 9.99293 23.4989 9.99393L23.5018 9.99293ZM16.2481 14.661H26.7626V17H16.2481V14.661Z" fill="url(#paint0_linear)"/>
<path d="M0 13.999V1H8.35724C10.6911 1 11.7731 2.67729 11.7731 4.31264C11.7731 5.93017 10.8797 7.0225 9.77532 7.29506C11.0188 7.50472 12 8.83502 12 10.4714C12 12.3584 10.862 14 8.56729 14L0 13.999ZM8.70733 4.93533C8.70733 4.30635 8.28722 3.92267 7.67481 3.92267H3.0126V5.95009H7.67481C8.28722 5.95009 8.70733 5.57899 8.70733 4.93533ZM8.93512 9.96718C8.93512 9.32457 8.51501 8.8759 7.77937 8.8759H3.0126V11.0773H7.77937C8.49728 11.0773 8.93512 10.6674 8.93512 9.96613V9.96718Z" fill="white"/>
<defs>
<linearGradient id="paint0_linear" x1="30.0058" y1="8.5" x2="13.0058" y2="8.5" gradientUnits="userSpaceOnUse">
<stop stop-color="#2DC2CE"/>
<stop offset="1" stop-color="#2DC066"/>
</linearGradient>
</defs>
</svg>
