<svg xmlns="http://www.w3.org/2000/svg" width="44.684" height="45.471" viewBox="0 0 44.684 45.471">
  <g id="chat_2_" data-name="chat (2)" transform="translate(-3.365 0)">
    <g id="Group_2466" data-name="Group 2466" transform="translate(3.366)">
      <path id="Path_1774" data-name="Path 1774" d="M25.793,0H25.72A22.3,22.3,0,0,0,8.227,36.2L4.974,43.769a1.212,1.212,0,0,0,.633,1.6,1.238,1.238,0,0,0,.694.085l11.926-2.1a21.492,21.492,0,0,0,7.431,1.291A22.323,22.323,0,1,0,25.793,0Zm-7.65,17.859h6.578a1.218,1.218,0,1,1,0,2.436H18.143a1.218,1.218,0,0,1,0-2.436Zm15.106,8.527H18.143a1.218,1.218,0,0,1,0-2.436H33.248a1.218,1.218,0,0,1,0,2.436Z" transform="translate(-3.366)" fill="#545554"/>
    </g>
  </g>
</svg>
