<svg id="email-black" xmlns="http://www.w3.org/2000/svg" width="44.646" height="44.646" viewBox="0 0 44.646 44.646">
  <path id="Path_1776" data-name="Path 1776" d="M151.638,144H133.625l9.007,7.72Zm0,0" transform="translate(-120.308 -129.649)" fill="#545554"/>
  <path id="Path_1777" data-name="Path 1777" d="M130.364,162.022a.8.8,0,0,1-.519-.192L120,153.391V168.4h20.729V153.391l-9.845,8.439A.8.8,0,0,1,130.364,162.022Zm0,0" transform="translate(-108.041 -138.104)" fill="#545554"/>
  <path id="Path_1778" data-name="Path 1778" d="M22.323,0A22.323,22.323,0,1,0,44.646,22.323,22.323,22.323,0,0,0,22.323,0ZM34.282,31.093a.8.8,0,0,1-.8.8H11.162a.8.8,0,0,1-.8-.8V13.553a.8.8,0,0,1,.8-.8H33.485a.8.8,0,0,1,.8.8Zm0,0" fill="#545554"/>
</svg>
