<svg id="phone-call_6_" data-name="phone-call (6)" xmlns="http://www.w3.org/2000/svg" width="44.646" height="44.646" viewBox="0 0 44.646 44.646">
  <path id="Path_1779" data-name="Path 1779" d="M134.377,133.747l-1.707,3.269a.8.8,0,0,1-.99.377,14.371,14.371,0,0,1-8.354-8.357.8.8,0,0,1,.377-.99l3.269-1.706-1.031-5.84A3.986,3.986,0,0,0,120,123.975a16.762,16.762,0,0,0,16.742,16.742,3.986,3.986,0,0,0,3.475-5.94Zm0,0" transform="translate(-108.041 -108.03)" fill="#fff"/>
  <path id="Path_1780" data-name="Path 1780" d="M22.323,0A22.323,22.323,0,1,0,44.646,22.323,22.323,22.323,0,0,0,22.323,0ZM28.7,34.282A18.357,18.357,0,0,1,10.364,15.945a5.581,5.581,0,0,1,8.7-4.624.8.8,0,0,1,.339.522l1.2,6.766a.8.8,0,0,1-.416.845L17.046,21.1a12.772,12.772,0,0,0,6.508,6.511l1.639-3.145a.8.8,0,0,1,.845-.416l6.767,1.2a.8.8,0,0,1,.521.338,5.581,5.581,0,0,1-4.626,8.7Zm0,0" fill="#fff"/>
</svg>
