<svg width="113" height="24" viewBox="0 0 113 24" fill="none" xmlns="http://www.w3.org/2000/svg">
<path d="M12.9048 17.7189H0.1V0.389063H12.5878C14.3198 0.389063 15.5794 0.946191 16.4057 1.7659C17.2329 2.58652 17.6329 3.67717 17.6329 4.75678C17.6329 6.89237 16.3181 8.32266 14.703 8.68098L14.7095 8.87744C16.5279 9.15687 17.9755 10.8969 17.9755 13.0617C17.9755 14.3142 17.5546 15.4769 16.7151 16.3261C15.8763 17.1746 14.6108 17.7189 12.9048 17.7189ZM4.53716 4.13213H4.43716V4.23213V6.96533V7.06533H4.53716H11.5595C12.0384 7.06533 12.4526 6.93563 12.7487 6.68287C13.0468 6.42846 13.2155 6.05752 13.2155 5.59745C13.2155 5.1502 13.0463 4.78046 12.7491 4.52386C12.4535 4.26858 12.0395 4.13213 11.5595 4.13213H4.53716ZM4.53716 10.8064H4.43716V10.9064V13.8773V13.9773H4.53716H11.7175C12.2744 13.9773 12.7354 13.8352 13.0587 13.559C13.3842 13.281 13.5586 12.8769 13.5586 12.3791C13.5586 11.9197 13.39 11.5229 13.0692 11.2422C12.7498 10.9627 12.2889 10.8064 11.7175 10.8064H4.53716Z" fill="white" stroke="black" stroke-width="0.2"/>
<path d="M52.2914 12.0097L55.2798 0.389063H58.6065L61.5954 12.0097L61.7898 12.0068L64.4097 0.389063H69.315L64.3337 17.7189H59.6872L57.0401 6.80982L56.8457 6.80983L54.2001 17.7189H49.5526L44.5713 0.389063H49.4502L52.0971 12.007L52.2914 12.0097Z" fill="white" stroke="black" stroke-width="0.2"/>
<path d="M78.8534 11.7206L81.8413 0.1H85.169L88.1569 11.7206L88.3513 11.7178L90.9723 0.1H95.8776L90.8968 17.4298H86.2487L83.6031 6.52077L83.4088 6.52076L80.7617 17.4298H76.1151L71.1328 0.1H76.0127L78.6591 11.718L78.8534 11.7206Z" fill="white" stroke="black" stroke-width="0.2"/>
<path d="M101.514 13.9773H112.392V17.7189H97.0756V0.389063H112.392V4.13213H101.514H101.414V4.23213V6.96533V7.06533H101.514H112.208V10.8064H101.514H101.414V10.9064V13.8773V13.9773H101.514Z" fill="white" stroke="black" stroke-width="0.2"/>
<path d="M34.8935 0.101534H34.9935V0.100433C40.2764 0.146203 44.211 3.81822 44.211 9.04743C44.211 14.3091 40.2287 17.9923 34.8992 17.9933H29.0955C23.7706 17.9872 19.7943 14.3035 19.7943 9.04589C19.7943 3.8167 23.7289 0.146188 29.0113 0.100433V0.101534H29.1113H34.8935ZM34.9935 3.88698V3.88449H34.8935H29.1113H29.0113V3.88697C27.5785 3.91292 26.3871 4.46974 25.5493 5.37755C24.6927 6.30559 24.2102 7.59505 24.2102 9.04589C24.2102 11.8935 26.1034 14.1552 29.0113 14.2069V14.2093H29.1113H34.8935H34.9935V14.2069C36.4261 14.1817 37.6173 13.6248 38.4551 12.7168C39.3116 11.7885 39.7941 10.4985 39.7941 9.04743C39.7941 6.20031 37.9008 3.94014 34.9935 3.88698ZM24.489 20.7987H39.5158V23.9H24.489V20.7987Z" fill="white" stroke="black" stroke-width="0.2"/>
</svg>
