<svg xmlns="http://www.w3.org/2000/svg" width="16" height="16" viewBox="0 0 16 16">
    <g fill="#878785" fill-rule="nonzero">
        <circle cx="9.326" cy="6.55" r="1"/>
        <circle cx="9.326" cy="9.263" r="1"/>
        <circle cx="12.039" cy="6.55" r="1"/>
        <path d="M15.345 7.797c.345 0 .624-.279.624-.624v-3.43a2.498 2.498 0 0 0-2.495-2.495h-.811V.624a.624.624 0 1 0-1.248 0v.624H8.577V.624a.624.624 0 1 0-1.248 0v.624H4.522V.624a.624.624 0 1 0-1.247 0v.624h-.78A2.498 2.498 0 0 0 0 3.743v9.73a2.498 2.498 0 0 0 2.495 2.496h7.86a.626.626 0 0 0 .063-.003.629.629 0 0 0 .51-.188l4.866-5.053a.624.624 0 0 0-.449-1.056h-2.994a2.498 2.498 0 0 0-2.495 2.495v2.557h-7.36c-.689 0-1.248-.56-1.248-1.247V3.743c0-.688.56-1.248 1.247-1.248h.78v.624a.624.624 0 1 0 1.247 0v-.624H7.33v.624a.624.624 0 1 0 1.248 0v-.624h2.838v.624a.624.624 0 1 0 1.248 0v-.624h.81c.689 0 1.248.56 1.248 1.248v3.43c0 .345.28.624.624.624zm-4.242 4.367c0-.688.56-1.248 1.248-1.248h1.527l-2.775 2.882v-1.634z"/>
        <circle cx="3.899" cy="6.55" r="1"/>
        <circle cx="6.612" cy="9.263" r="1"/>
        <circle cx="3.899" cy="11.977" r="1"/>
        <circle cx="3.899" cy="9.263" r="1"/>
        <circle cx="6.612" cy="11.977" r="1"/>
        <circle cx="6.612" cy="6.55" r="1"/>
    </g>
</svg>
