<svg xmlns="http://www.w3.org/2000/svg" width="13" height="17" viewBox="0 0 13 17">
    <g fill="#000" fill-rule="nonzero" stroke="#000" stroke-width=".693" opacity="1">
        <path d="M6.642 2.092C4.192 2.092 2.2 4.1 2.2 6.569c0 2.381 4.054 8.324 4.227 8.576a.26.26 0 0 0 .43 0c.172-.252 4.227-6.195 4.227-8.576 0-2.469-1.993-4.477-4.442-4.477zm0 12.434c-.85-1.28-3.92-6.035-3.92-7.957 0-2.179 1.759-3.95 3.92-3.95s3.92 1.771 3.92 3.95c0 1.921-3.07 6.678-3.92 7.957z"/>
        <path d="M6.642 5.252c-.72 0-1.306.59-1.306 1.317 0 .726.586 1.316 1.306 1.316.72 0 1.306-.59 1.306-1.316 0-.726-.586-1.317-1.306-1.317zm0 2.107a.788.788 0 0 1-.784-.79c0-.436.352-.79.784-.79.432 0 .784.354.784.79 0 .435-.352.79-.784.79z"/>
    </g>
</svg>
