<svg xmlns="http://www.w3.org/2000/svg" width="11" height="15" viewBox="0 0 11 15">
    <g fill="#000" fill-rule="nonzero">
        <path d="M10.453 14.672H.797a.37.37 0 0 1-.375-.375V.703A.37.37 0 0 1 .797.328h9.656a.37.37 0 0 1 .375.375v13.594c-.047.187-.187.375-.375.375zm-9.281-.703h8.953V1.079H1.172v12.89z"/>
        <path d="M2.484 2.109h1v1h-1zM5.297 2.109h1v1h-1zM8.063 2.109h1v1h-1zM2.484 4.406h1v1h-1zM5.297 4.406h1v1h-1zM8.063 4.406h1v1h-1zM2.484 6.75h1v1h-1zM5.297 6.75h1v1h-1zM8.063 6.75h1v1h-1zM2.484 9.047h1v1h-1zM5.297 9.047h1v1h-1zM8.063 9.047h1v1h-1zM7.594 14.672h-3.89v-3.328h3.89v3.328zm-3.235-.703h2.485v-1.922H4.359v1.922z"/>
    </g>
</svg>
